<svg xmlns="http://www.w3.org/2000/svg" enable-background="new 0 0 24 24" viewBox="0 0 24 24" id="eslint">
  <path fill="#4B32C3" d="M23.224,11.554l-5.158-8.973c-0.187-0.324-0.533-0.564-0.908-0.564H6.842c-0.375,0-0.721,0.239-0.908,0.564l-5.158,8.953c-0.187,0.325-0.187,0.734,0,1.059l5.158,8.9c0.187,0.324,0.534,0.49,0.908,0.49h10.316c0.375,0,0.721-0.161,0.908-0.485l5.158-8.914C23.411,12.259,23.411,11.879,23.224,11.554L23.224,11.554z"></path>
  <path fill="#FFF" d="M18.19,15.453c0,0.117-0.071,0.226-0.172,0.285l-5.849,3.375c-0.102,0.059-0.228,0.059-0.331,0l-5.854-3.375c-0.102-0.059-0.173-0.167-0.173-0.285V8.704c0-0.118,0.07-0.226,0.172-0.285l5.849-3.375c0.102-0.059,0.228-0.059,0.331,0l5.854,3.375c0.102,0.059,0.174,0.167,0.174,0.285L18.19,15.453L18.19,15.453z"></path>
  <polygon points="12.183 6.521 12.184 6.522 12.185 6.522"></polygon>
  <polygon points="11.815 17.644 11.814 17.643 11.813 17.643"></polygon>
  <polygon points="23.849 11.066 23.851 11.071 23.852 11.071"></polygon>
  <path fill="#8080F2" d="M8.059,9.478l3.833-2.213c0.096-0.055,0.214-0.055,0.31,0l3.833,2.213c0.096,0.055,0.155,0.158,0.155,0.269v4.426c0,0.111-0.059,0.213-0.155,0.269l-3.833,2.213c-0.096,0.055-0.214,0.055-0.31,0l-3.833-2.213c-0.096-0.055-0.155-0.158-0.155-0.269V9.747C7.904,9.636,7.963,9.534,8.059,9.478L8.059,9.478z"></path>
  <path d="M17.106,22.5H6.895c-0.657,0-1.235-0.318-1.547-0.85l-5.105-8.691c-0.006-0.009-0.011-0.019-0.016-0.028C0.078,12.667,0,12.367,0,12.062c0-0.318,0.084-0.628,0.243-0.897l5.104-8.741C5.681,1.854,6.273,1.5,6.895,1.5h10.21c0.622,0,1.215,0.354,1.547,0.923l5.106,8.765C23.915,11.448,24,11.755,24,12.067c0,0.317-0.086,0.626-0.248,0.893l-5.099,8.696C18.341,22.185,17.763,22.5,17.106,22.5z M1.549,12.222l5.093,8.669C6.699,20.99,6.837,21,6.895,21h10.212c0.058,0,0.198-0.01,0.253-0.104l5.104-8.705c0.017-0.029,0.036-0.067,0.036-0.123c0-0.041-0.011-0.08-0.032-0.115l-5.111-8.773C17.297,3.077,17.189,3,17.105,3H6.895C6.811,3,6.702,3.078,6.641,3.181l-5.105,8.743C1.521,11.949,1.5,11.996,1.5,12.062c0,0.051,0.013,0.098,0.038,0.141C1.542,12.209,1.545,12.216,1.549,12.222z"></path>
  <path d="M12.002,19.75c-0.188,0-0.374-0.049-0.537-0.141l-5.909-3.336C5.227,16.091,5.011,15.74,5,15.36c0-0.007,0-0.015,0-0.022V8.663c0-0.385,0.214-0.744,0.558-0.937l5.902-3.335c0.33-0.189,0.743-0.189,1.076,0.002l5.906,3.334c0.335,0.187,0.544,0.528,0.557,0.91l0.002,6.7c-0.011,0.401-0.225,0.752-0.559,0.937l-5.904,3.334C12.381,19.7,12.193,19.75,12.002,19.75z M11.801,18.303c-0.002,0.001-0.005,0.002-0.007,0.004L11.801,18.303z M6.5,15.083l5.502,3.106l5.498-3.106l-0.001-6.165l-5.503-3.107L6.5,8.917V15.083z M17.708,14.967c-0.002,0.001-0.004,0.002-0.005,0.003L17.708,14.967z M6.288,14.963l0.006,0.004C6.292,14.965,6.29,14.964,6.288,14.963z M17.704,9.034c0.001,0.001,0.002,0.001,0.003,0.002L17.704,9.034z M6.296,9.032L6.293,9.034C6.294,9.033,6.295,9.033,6.296,9.032z M11.793,5.697c0.001,0,0.003,0.001,0.005,0.002L11.793,5.697z M12.202,5.694l-0.005,0.003C12.199,5.696,12.2,5.695,12.202,5.694z"></path>
</svg>
